<svg width="256" height="256" viewBox="44 96 168 132" fill="none" xmlns="http://www.w3.org/2000/svg">
  <defs>
    <linearGradient id="anveraGrad" x1="32" y1="216" x2="224" y2="32" gradientUnits="userSpaceOnUse">
      <stop offset="0" stop-color="#8BC34A"/>
      <stop offset="0.5" stop-color="#26A69A"/>
      <stop offset="1" stop-color="#7E57C2"/>
    </linearGradient>
    <linearGradient id="anveraGradSoft" x1="48" y1="206" x2="220" y2="46" gradientUnits="userSpaceOnUse">
      <stop offset="0" stop-color="#66BB6A"/>
      <stop offset="0.5" stop-color="#42A5F5"/>
      <stop offset="1" stop-color="#AB47BC"/>
    </linearGradient>
  </defs>

  <path d="M128 208C128 175 142 151 168 130M128 208C128 172 113 146 88 126M128 208C127 181 129 160 140 140M128 208C129 180 126 159 114 140" stroke="url(#anveraGrad)" stroke-width="8" stroke-linecap="round"/>
  <path d="M66 118L92 126M92 126L114 140M190 112L168 130M168 130L140 140M128 108L140 140M128 108L114 140" stroke="url(#anveraGradSoft)" stroke-width="5" stroke-linecap="round"/>
  <circle cx="58" cy="116" r="9" fill="url(#anveraGrad)"/>
  <circle cx="96" cy="126" r="7" fill="url(#anveraGrad)"/>
  <circle cx="198" cy="112" r="9" fill="url(#anveraGrad)"/>
  <circle cx="160" cy="130" r="7" fill="url(#anveraGrad)"/>
  <circle cx="128" cy="108" r="8" fill="url(#anveraGrad)"/>
  <circle cx="114" cy="140" r="7" fill="url(#anveraGrad)"/>
  <circle cx="140" cy="140" r="7" fill="url(#anveraGrad)"/>
  <path d="M72 220C100 214 108 206 128 206C148 206 156 214 184 220C162 220 132 219 128 219C124 219 94 220 72 220Z" fill="url(#anveraGrad)"/>
</svg>
